<?xml version="1.0" encoding="UTF-8" standalone="no"?>
<!DOCTYPE svg PUBLIC "-//W3C//DTD SVG 1.0//EN" "http://www.w3.org/TR/2001/PR-SVG-20010719/DTD/svg10.dtd">
<svg width="20cm" height="10cm" viewBox="-29 77 394 193" xmlns="http://www.w3.org/2000/svg" xmlns:xlink="http://www.w3.org/1999/xlink">
  <line style="fill: none; fill-opacity:0; stroke-width: 1; stroke: #000000" x1="12" y1="192.77" x2="12" y2="104"/>
  <g>
    <line style="fill: none; fill-opacity:0; stroke-width: 1; stroke: #000000" x1="72" y1="104.5" x2="93" y2="104.5"/>
    <rect style="fill: #ffffff" x="93" y="96.5" width="42" height="16"/>
    <rect style="fill: none; fill-opacity:0; stroke-width: 1; stroke: #000000" x="93" y="96.5" width="42" height="16"/>
    <line style="fill: none; fill-opacity:0; stroke-width: 1; stroke: #000000" x1="135" y1="104.5" x2="156" y2="104.5"/>
  </g>
  <g>
    <line style="fill: none; fill-opacity:0; stroke-width: 1; stroke: #000000" x1="155" y1="104.5" x2="176" y2="104.5"/>
    <rect style="fill: #ffffff" x="176" y="96.5" width="42" height="16"/>
    <rect style="fill: none; fill-opacity:0; stroke-width: 1; stroke: #000000" x="176" y="96.5" width="42" height="16"/>
    <line style="fill: none; fill-opacity:0; stroke-width: 1; stroke: #000000" x1="218" y1="104.5" x2="239" y2="104.5"/>
  </g>
  <g>
    <line style="fill: none; fill-opacity:0; stroke-width: 1; stroke: #000000" x1="72" y1="180" x2="93" y2="180"/>
    <rect style="fill: #ffffff" x="93" y="172" width="42" height="16"/>
    <rect style="fill: none; fill-opacity:0; stroke-width: 1; stroke: #000000" x="93" y="172" width="42" height="16"/>
    <line style="fill: none; fill-opacity:0; stroke-width: 1; stroke: #000000" x1="135" y1="180" x2="156" y2="180"/>
  </g>
  <line style="fill: none; fill-opacity:0; stroke-width: 1; stroke: #000000" x1="12.3571" y1="190" x2="12.125" y2="261.5"/>
  <text font-size="12.8" style="fill: #000000;text-anchor:start;font-family:sans-serif;font-style:normal;font-weight:normal" x="190.168" y="164.612">
    <tspan x="190.168" y="164.612">R</tspan>
  </text>
  <text font-size="12.8" style="fill: #000000;text-anchor:start;font-family:sans-serif;font-style:normal;font-weight:normal" x="108.943" y="89.396">
    <tspan x="108.943" y="89.396">R</tspan>
  </text>
  <text font-size="12.8" style="fill: #000000;text-anchor:start;font-family:sans-serif;font-style:normal;font-weight:normal" x="312.98" y="127.091">
    <tspan x="312.98" y="127.091">R</tspan>
  </text>
  <text font-size="9.6" style="fill: #000000;text-anchor:middle;font-family:sans-serif;font-style:normal;font-weight:normal" x="130.635" y="245.441">
    <tspan x="130.635" y="245.441">7</tspan>
  </text>
  <text font-size="12.8" style="fill: #000000;text-anchor:start;font-family:sans-serif;font-style:normal;font-weight:normal" x="191.302" y="90.3884">
    <tspan x="191.302" y="90.3884">R</tspan>
  </text>
  <text font-size="9.6" style="fill: #000000;text-anchor:middle;font-family:sans-serif;font-style:normal;font-weight:normal" x="136.357" y="245.825">
    <tspan x="136.357" y="245.825">8</tspan>
  </text>
  <text font-size="12.8" style="fill: #000000;text-anchor:start;font-family:sans-serif;font-style:normal;font-weight:normal" x="118.749" y="242.75">
    <tspan x="118.749" y="242.75">R</tspan>
  </text>
  <line style="fill: none; fill-opacity:0; stroke-width: 1; stroke: #000000" x1="72" y1="104.5" x2="72" y2="180"/>
  <text font-size="12.8" style="fill: #000000;text-anchor:start;font-family:sans-serif;font-style:normal;font-weight:normal" x="150.569" y="203.212">
    <tspan x="150.569" y="203.212"></tspan>
  </text>
  <text font-size="12.8" style="fill: #000000;text-anchor:start;font-family:sans-serif;font-style:normal;font-weight:normal" x="147.211" y="204.98">
    <tspan x="147.211" y="204.98"></tspan>
  </text>
  <text font-size="12.8" style="fill: #000000;text-anchor:start;font-family:sans-serif;font-style:normal;font-weight:normal" x="108.686" y="270.37">
    <tspan x="108.686" y="270.37"></tspan>
  </text>
  <g>
    <line style="fill: none; fill-opacity:0; stroke-width: 1; stroke: #000000" x1="73.3571" y1="104" x2="11.2426" y2="103.473"/>
    <path style="fill: #000000" d="M 73.3571 104 C 73.3486,105 72.3401,105.991 71.3402,105.983 C 70.3402,105.974 69.3487,104.966 69.3572,103.966 C 69.3657,102.966 70.3741,101.975 71.3741,101.983 C 72.3741,101.992 73.3656,103 73.3571,104z"/>
    <path style="fill: none; fill-opacity:0; stroke-width: 1; stroke: #000000" d="M 73.3571 104 C 73.3486,105 72.3401,105.991 71.3402,105.983 C 70.3402,105.974 69.3487,104.966 69.3572,103.966 C 69.3657,102.966 70.3741,101.975 71.3741,101.983 C 72.3741,101.992 73.3656,103 73.3571,104"/>
  </g>
  <text font-size="12.8" style="fill: #000000;text-anchor:start;font-family:sans-serif;font-style:normal;font-weight:normal" x="33.55" y="104.975">
    <tspan x="33.55" y="104.975"></tspan>
  </text>
  <g>
    <line style="fill: none; fill-opacity:0; stroke-width: 1; stroke: #000000" x1="155.95" y1="179.8" x2="176.95" y2="179.8"/>
    <rect style="fill: #ffffff" x="176.95" y="171.8" width="42" height="16"/>
    <rect style="fill: none; fill-opacity:0; stroke-width: 1; stroke: #000000" x="176.95" y="171.8" width="42" height="16"/>
    <line style="fill: none; fill-opacity:0; stroke-width: 1; stroke: #000000" x1="218.95" y1="179.8" x2="239.95" y2="179.8"/>
  </g>
  <text font-size="9.6" style="fill: #000000;text-anchor:middle;font-family:sans-serif;font-style:normal;font-weight:normal" x="119.934" y="165.903">
    <tspan x="119.934" y="165.903">3</tspan>
  </text>
  <text font-size="12.8" style="fill: #000000;text-anchor:start;font-family:sans-serif;font-style:normal;font-weight:normal" x="108.172" y="164.058">
    <tspan x="108.172" y="164.058">R</tspan>
  </text>
  <g>
    <g>
      <ellipse style="fill: #ffffff" cx="12.1107" cy="138.6" rx="12" ry="12"/>
      <ellipse style="fill: none; fill-opacity:0; stroke-width: 1; stroke: #000000" cx="12.1107" cy="138.6" rx="12" ry="12"/>
    </g>
    <line style="fill: none; fill-opacity:0; stroke-width: 1; stroke: #000000" x1="8.1107" y1="136.934" x2="16.1107" y2="136.934"/>
    <line style="fill: none; fill-opacity:0; stroke-width: 1; stroke: #000000" x1="8.1107" y1="140.934" x2="16.1107" y2="140.934"/>
  </g>
  <g>
    <line style="fill: none; fill-opacity:0; stroke-width: 1; stroke: #000000" x1="-6.76402" y1="119.143" x2="-6.76402" y2="156.907"/>
    <polyline style="fill: none; fill-opacity:0; stroke-width: 1; stroke: #000000" points="-9.76402,152.025 -6.76402,158.025 -3.76402,152.025 "/>
  </g>
  <text font-size="12.8" style="fill: #000000;text-anchor:start;font-family:sans-serif;font-style:normal;font-weight:normal" x="-28.3854" y="141.143">
    <tspan x="-28.3854" y="141.143">U</tspan>
  </text>
  <text font-size="9.6" style="fill: #000000;text-anchor:middle;font-family:sans-serif;font-style:normal;font-weight:normal" x="1.23598" y="127.093">
    <tspan x="1.23598" y="127.093">+</tspan>
  </text>
  <text font-size="9.6" style="fill: #000000;text-anchor:middle;font-family:sans-serif;font-style:normal;font-weight:normal" x="-0.264018" y="156.093">
    <tspan x="-0.264018" y="156.093">-</tspan>
  </text>
  <text font-size="9.6" style="fill: #000000;text-anchor:middle;font-family:sans-serif;font-style:normal;font-weight:normal" x="-16.2751" y="143.003">
    <tspan x="-16.2751" y="143.003">1</tspan>
  </text>
  <text font-size="9.6" style="fill: #000000;text-anchor:middle;font-family:sans-serif;font-style:normal;font-weight:normal" x="-11.1429" y="142.825">
    <tspan x="-11.1429" y="142.825">2</tspan>
  </text>
  <text font-size="12.7998" style="fill: #000000;text-anchor:start;font-family:sans-serif;font-style:normal;font-weight:normal" x="115.357" y="121.5">
    <tspan x="115.357" y="121.5"></tspan>
  </text>
  <text font-size="9.60105" style="fill: #000000;text-anchor:start;font-family:sans-serif;font-style:normal;font-weight:normal" x="117.857" y="92.5">
    <tspan x="117.857" y="92.5">12</tspan>
  </text>
  <line style="fill: none; fill-opacity:0; stroke-width: 1; stroke: #000000" x1="12.8571" y1="260.5" x2="90.3571" y2="261"/>
  <g>
    <line style="fill: none; fill-opacity:0; stroke-width: 1; stroke: #000000" x1="89.5071" y1="261.1" x2="110.507" y2="261.1"/>
    <rect style="fill: #ffffff" x="110.507" y="253.1" width="42" height="16"/>
    <rect style="fill: none; fill-opacity:0; stroke-width: 1; stroke: #000000" x="110.507" y="253.1" width="42" height="16"/>
    <line style="fill: none; fill-opacity:0; stroke-width: 1; stroke: #000000" x1="152.507" y1="261.1" x2="173.507" y2="261.1"/>
  </g>
  <line style="fill: none; fill-opacity:0; stroke-width: 1; stroke: #000000" x1="173.507" y1="261.1" x2="364.857" y2="260.5"/>
  <text font-size="9.6" style="fill: #000000;text-anchor:middle;font-family:sans-serif;font-style:normal;font-weight:normal" x="203.857" y="91.825">
    <tspan x="203.857" y="91.825">A</tspan>
  </text>
  <text font-size="9.6" style="fill: #000000;text-anchor:middle;font-family:sans-serif;font-style:normal;font-weight:normal" x="203.357" y="166.686">
    <tspan x="203.357" y="166.686">B</tspan>
  </text>
  <g>
    <line style="fill: none; fill-opacity:0; stroke-width: 1; stroke: #000000" x1="239.95" y1="179.8" x2="280.357" y2="140"/>
    <path style="fill: #000000" d="M 280.357 140 C 281.059,140.712 281.048,142.127 280.336,142.828 C 279.623,143.53 278.209,143.519 277.507,142.807 C 276.806,142.095 276.816,140.68 277.529,139.979 C 278.241,139.277 279.655,139.288 280.357,140z"/>
    <path style="fill: none; fill-opacity:0; stroke-width: 1; stroke: #000000" d="M 280.357 140 C 281.059,140.712 281.048,142.127 280.336,142.828 C 279.623,143.53 278.209,143.519 277.507,142.807 C 276.806,142.095 276.816,140.68 277.529,139.979 C 278.241,139.277 279.655,139.288 280.357,140"/>
  </g>
  <line style="fill: none; fill-opacity:0; stroke-width: 1; stroke: #000000" x1="239" y1="104.5" x2="278.857" y2="140.5"/>
  <g>
    <line style="fill: none; fill-opacity:0; stroke-width: 1; stroke: #000000" x1="279.507" y1="141.6" x2="300.507" y2="141.6"/>
    <rect style="fill: #ffffff" x="300.507" y="133.6" width="42" height="16"/>
    <rect style="fill: none; fill-opacity:0; stroke-width: 1; stroke: #000000" x="300.507" y="133.6" width="42" height="16"/>
    <line style="fill: none; fill-opacity:0; stroke-width: 1; stroke: #000000" x1="342.507" y1="141.6" x2="363.507" y2="141.6"/>
  </g>
  <text font-size="9.6" style="fill: #000000;text-anchor:middle;font-family:sans-serif;font-style:normal;font-weight:normal" x="325.357" y="129.686">
    <tspan x="325.357" y="129.686">C</tspan>
  </text>
  <line style="fill: none; fill-opacity:0; stroke-width: 1; stroke: #000000" x1="363.507" y1="141.6" x2="363.357" y2="262"/>
</svg>
