<?xml version="1.0" encoding="UTF-8" standalone="no"?>
<!DOCTYPE svg PUBLIC "-//W3C//DTD SVG 1.0//EN" "http://www.w3.org/TR/2001/PR-SVG-20010719/DTD/svg10.dtd">
<svg width="17cm" height="9cm" viewBox="97 68 338 165" xmlns="http://www.w3.org/2000/svg" xmlns:xlink="http://www.w3.org/1999/xlink">
  <g>
    <line style="fill: none; fill-opacity:0; stroke-width: 1; stroke: #000000" x1="220.15" y1="93.0116" x2="199.15" y2="93.0116"/>
    <rect style="fill: #ffffff" x="157.15" y="85.7366" width="42" height="14.55"/>
    <rect style="fill: none; fill-opacity:0; stroke-width: 1; stroke: #000000" x="157.15" y="85.7366" width="42" height="14.55"/>
    <line style="fill: none; fill-opacity:0; stroke-width: 1; stroke: #000000" x1="157.15" y1="93.0116" x2="136.15" y2="93.0116"/>
  </g>
  <text font-size="12.8" style="fill: #000000;text-anchor:start;font-family:sans-serif;font-style:normal;font-weight:normal" x="174.063" y="81.9">
    <tspan x="174.063" y="81.9">R</tspan>
  </text>
  <g>
    <g>
      <ellipse style="fill: #ffffff" cx="136.4" cy="157.933" rx="12" ry="12"/>
      <ellipse style="fill: none; fill-opacity:0; stroke-width: 1; stroke: #000000" cx="136.4" cy="157.933" rx="12" ry="12"/>
    </g>
    <line style="fill: none; fill-opacity:0; stroke-width: 1; stroke: #000000" x1="132.4" y1="156.266" x2="140.4" y2="156.266"/>
    <line style="fill: none; fill-opacity:0; stroke-width: 1; stroke: #000000" x1="132.4" y1="160.266" x2="140.4" y2="160.266"/>
  </g>
  <line style="fill: none; fill-opacity:0; stroke-width: 1; stroke: #000000" x1="136.4" y1="169.933" x2="136.375" y2="229.716"/>
  <g>
    <line style="fill: none; fill-opacity:0; stroke-width: 1; stroke: #000000" x1="244.376" y1="197.315" x2="243.852" y2="231.786"/>
    <path style="fill: #000000" d="M 243.852 231.786 C 242.852,231.771 241.867,230.756 241.883,229.756 C 241.898,228.756 242.913,227.771 243.913,227.786 C 244.913,227.802 245.897,228.817 245.882,229.817 C 245.867,230.817 244.852,231.801 243.852,231.786z"/>
    <path style="fill: none; fill-opacity:0; stroke-width: 1; stroke: #000000" d="M 243.852 231.786 C 242.852,231.771 241.867,230.756 241.883,229.756 C 241.898,228.756 242.913,227.771 243.913,227.786 C 244.913,227.802 245.897,228.817 245.882,229.817 C 245.867,230.817 244.852,231.801 243.852,231.786"/>
  </g>
  <line style="fill: none; fill-opacity:0; stroke-width: 1; stroke: #000000" x1="136.4" y1="145.933" x2="136.15" y2="92.658"/>
  <g>
    <line style="fill: none; fill-opacity:0; stroke-width: 1; stroke: #000000" x1="244" y1="91" x2="244.376" y2="121.315"/>
    <path style="fill: #000000" d="M 244 91 C 245,90.9876 246.012,91.9751 246.025,92.975 C 246.037,93.975 245.05,94.9873 244.05,94.9997 C 243.05,95.0121 242.037,94.0246 242.025,93.0247 C 242.013,92.0247 243,91.0124 244,91z"/>
    <path style="fill: none; fill-opacity:0; stroke-width: 1; stroke: #000000" d="M 244 91 C 245,90.9876 246.012,91.9751 246.025,92.975 C 246.037,93.975 245.05,94.9873 244.05,94.9997 C 243.05,95.0121 242.037,94.0246 242.025,93.0247 C 242.013,92.0247 243,91.0124 244,91"/>
  </g>
  <line style="fill: none; fill-opacity:0; stroke-width: 1; stroke: #000000" x1="220.15" y1="93.0116" x2="244.816" y2="92.9838"/>
  <g>
    <line style="fill: none; fill-opacity:0; stroke-width: 1; stroke: #000000" x1="244.376" y1="121.315" x2="244.376" y2="140.315"/>
    <rect style="fill: #ffffff" x="236.376" y="140.315" width="16" height="38"/>
    <rect style="fill: none; fill-opacity:0; stroke-width: 1; stroke: #000000" x="236.376" y="140.315" width="16" height="38"/>
    <line style="fill: none; fill-opacity:0; stroke-width: 1; stroke: #000000" x1="244.376" y1="178.315" x2="244.376" y2="197.315"/>
  </g>
  <text font-size="9.6" style="fill: #000000;text-anchor:start;font-family:sans-serif;font-style:normal;font-weight:normal" x="226.428" y="169.331">
    <tspan x="226.428" y="169.331">2</tspan>
  </text>
  <line style="fill: none; fill-opacity:0; stroke-width: 1; stroke: #000000" x1="135.852" y1="229.786" x2="395.5" y2="230.5"/>
  <text font-size="12.8" style="fill: #000000;text-anchor:start;font-family:sans-serif;font-style:normal;font-weight:normal" x="216.404" y="166.681">
    <tspan x="216.404" y="166.681">R</tspan>
  </text>
  <text font-size="9.6" style="fill: #000000;text-anchor:start;font-family:sans-serif;font-style:normal;font-weight:normal" x="183.375" y="83.6896">
    <tspan x="183.375" y="83.6896">1</tspan>
  </text>
  <g>
    <line style="fill: none; fill-opacity:0; stroke-width: 1.4; stroke: #000000" x1="117.083" y1="134.965" x2="117.049" y2="175.437"/>
    <polyline style="fill: none; fill-opacity:0; stroke-width: 1.4; stroke: #000000" points="112.056,166.998 117.048,177.003 122.056,167.007 "/>
  </g>
  <text font-size="14.4949" style="fill: #000000;text-anchor:start;font-family:sans-serif;font-style:normal;font-weight:normal" x="97.9" y="155.072">
    <tspan x="97.9" y="155.072">U</tspan>
  </text>
  <line style="fill: none; fill-opacity:0; stroke-width: 1; stroke: #000000" x1="243.518" y1="92.9838" x2="312.5" y2="93"/>
  <text font-size="9.6" style="fill: #000000;text-anchor:start;font-family:sans-serif;font-style:normal;font-weight:normal" x="282.726" y="166.618">
    <tspan x="282.726" y="166.618">3</tspan>
  </text>
  <text font-size="12.8" style="fill: #000000;text-anchor:start;font-family:sans-serif;font-style:normal;font-weight:normal" x="272.702" y="163.968">
    <tspan x="272.702" y="163.968">R</tspan>
  </text>
  <text font-size="12.8" style="fill: #000000;text-anchor:start;font-family:sans-serif;font-style:normal;font-weight:normal" x="302.4" y="115.433">
    <tspan x="302.4" y="115.433">I</tspan>
  </text>
  <text font-size="9.6" style="fill: #000000;text-anchor:start;font-family:sans-serif;font-style:normal;font-weight:normal" x="308.9" y="117.372">
    <tspan x="308.9" y="117.372">R3</tspan>
  </text>
  <text font-size="9.6" style="fill: #000000;text-anchor:start;font-family:sans-serif;font-style:normal;font-weight:normal" x="357.326" y="82.685">
    <tspan x="357.326" y="82.685">4</tspan>
  </text>
  <text font-size="12.8" style="fill: #000000;text-anchor:start;font-family:sans-serif;font-style:normal;font-weight:normal" x="347.302" y="80.036">
    <tspan x="347.302" y="80.036">R</tspan>
  </text>
  <g>
    <line style="fill: none; fill-opacity:0; stroke-width: 1.4; stroke: #000000" x1="314.834" y1="139.726" x2="314.799" y2="180.198"/>
    <polyline style="fill: none; fill-opacity:0; stroke-width: 1.4; stroke: #000000" points="309.806,171.758 314.797,181.763 319.806,171.767 "/>
  </g>
  <text font-size="14.4949" style="fill: #000000;text-anchor:start;font-family:sans-serif;font-style:normal;font-weight:normal" x="319.65" y="161.333">
    <tspan x="319.65" y="161.333">U</tspan>
  </text>
  <text font-size="9.6" style="fill: #000000;text-anchor:start;font-family:sans-serif;font-style:normal;font-weight:normal" x="329.15" y="164.133">
    <tspan x="329.15" y="164.133">R3</tspan>
  </text>
  <text font-size="9.6" style="fill: #000000;text-anchor:middle;font-family:sans-serif;font-style:normal;font-weight:normal" x="125.475" y="149.65">
    <tspan x="125.475" y="149.65">+</tspan>
  </text>
  <text font-size="9.6" style="fill: #000000;text-anchor:middle;font-family:sans-serif;font-style:normal;font-weight:normal" x="125.475" y="173.65">
    <tspan x="125.475" y="173.65">-</tspan>
  </text>
  <g>
    <line style="fill: none; fill-opacity:0; stroke-width: 1; stroke: #000000" x1="297.45" y1="197.222" x2="296.926" y2="231.694"/>
    <path style="fill: #000000" d="M 296.926 231.694 C 295.926,231.679 294.941,230.664 294.957,229.664 C 294.972,228.664 295.987,227.679 296.987,227.694 C 297.987,227.71 298.971,228.725 298.956,229.725 C 298.941,230.725 297.926,231.709 296.926,231.694z"/>
    <path style="fill: none; fill-opacity:0; stroke-width: 1; stroke: #000000" d="M 296.926 231.694 C 295.926,231.679 294.941,230.664 294.957,229.664 C 294.972,228.664 295.987,227.679 296.987,227.694 C 297.987,227.71 298.971,228.725 298.956,229.725 C 298.941,230.725 297.926,231.709 296.926,231.694"/>
  </g>
  <g>
    <line style="fill: none; fill-opacity:0; stroke-width: 1; stroke: #000000" x1="297.074" y1="90.907" x2="297.45" y2="121.222"/>
    <path style="fill: #000000" d="M 297.074 90.907 C 298.074,90.8946 299.086,91.8821 299.099,92.882 C 299.111,93.882 298.124,94.8943 297.124,94.9067 C 296.124,94.9191 295.111,93.9316 295.099,92.9317 C 295.087,91.9317 296.074,90.9194 297.074,90.907z"/>
    <path style="fill: none; fill-opacity:0; stroke-width: 1; stroke: #000000" d="M 297.074 90.907 C 298.074,90.8946 299.086,91.8821 299.099,92.882 C 299.111,93.882 298.124,94.8943 297.124,94.9067 C 296.124,94.9191 295.111,93.9316 295.099,92.9317 C 295.087,91.9317 296.074,90.9194 297.074,90.907"/>
  </g>
  <g>
    <line style="fill: none; fill-opacity:0; stroke-width: 1; stroke: #000000" x1="297.45" y1="121.222" x2="297.45" y2="140.222"/>
    <rect style="fill: #ffffff" x="289.45" y="140.222" width="16" height="38"/>
    <rect style="fill: none; fill-opacity:0; stroke-width: 1; stroke: #000000" x="289.45" y="140.222" width="16" height="38"/>
    <line style="fill: none; fill-opacity:0; stroke-width: 1; stroke: #000000" x1="297.45" y1="178.222" x2="297.45" y2="197.222"/>
  </g>
  <g>
    <line style="fill: none; fill-opacity:0; stroke-width: 1; stroke: #000000" x1="395.95" y1="92.975" x2="374.95" y2="92.975"/>
    <rect style="fill: #ffffff" x="332.95" y="85.7" width="42" height="14.55"/>
    <rect style="fill: none; fill-opacity:0; stroke-width: 1; stroke: #000000" x="332.95" y="85.7" width="42" height="14.55"/>
    <line style="fill: none; fill-opacity:0; stroke-width: 1; stroke: #000000" x1="332.95" y1="92.975" x2="311.95" y2="92.975"/>
  </g>
  <text font-size="9.6" style="fill: #000000;text-anchor:start;font-family:sans-serif;font-style:normal;font-weight:normal" x="107.5" y="159.825">
    <tspan x="107.5" y="159.825">1</tspan>
  </text>
  <g>
    <g>
      <ellipse style="fill: #ffffff" cx="395.45" cy="158.477" rx="12" ry="12"/>
      <ellipse style="fill: none; fill-opacity:0; stroke-width: 1; stroke: #000000" cx="395.45" cy="158.477" rx="12" ry="12"/>
    </g>
    <line style="fill: none; fill-opacity:0; stroke-width: 1; stroke: #000000" x1="391.45" y1="156.811" x2="399.45" y2="156.811"/>
    <line style="fill: none; fill-opacity:0; stroke-width: 1; stroke: #000000" x1="391.45" y1="160.811" x2="399.45" y2="160.811"/>
  </g>
  <line style="fill: none; fill-opacity:0; stroke-width: 1; stroke: #000000" x1="395.45" y1="170.477" x2="395.426" y2="230.26"/>
  <line style="fill: none; fill-opacity:0; stroke-width: 1; stroke: #000000" x1="395.45" y1="146.477" x2="395.95" y2="92.975"/>
  <g>
    <line style="fill: none; fill-opacity:0; stroke-width: 1.4; stroke: #000000" x1="416.134" y1="136.009" x2="416.099" y2="176.482"/>
    <polyline style="fill: none; fill-opacity:0; stroke-width: 1.4; stroke: #000000" points="411.106,168.043 416.097,178.047 421.106,168.051 "/>
  </g>
  <text font-size="14.4949" style="fill: #000000;text-anchor:start;font-family:sans-serif;font-style:normal;font-weight:normal" x="419.45" y="161.117">
    <tspan x="419.45" y="161.117">U</tspan>
  </text>
  <text font-size="9.6" style="fill: #000000;text-anchor:middle;font-family:sans-serif;font-style:normal;font-weight:normal" x="406" y="147.825">
    <tspan x="406" y="147.825">+</tspan>
  </text>
  <text font-size="9.6" style="fill: #000000;text-anchor:middle;font-family:sans-serif;font-style:normal;font-weight:normal" x="406.5" y="174.825">
    <tspan x="406.5" y="174.825">-</tspan>
  </text>
  <text font-size="9.6" style="fill: #000000;text-anchor:start;font-family:sans-serif;font-style:normal;font-weight:normal" x="429.05" y="165.869">
    <tspan x="429.05" y="165.869">2</tspan>
  </text>
  <g>
    <line style="fill: none; fill-opacity:0; stroke-width: 1.8; stroke: #000000" x1="297.5" y1="98" x2="297.668" y2="118.096"/>
    <polygon style="fill: #ffffff" points="293.668,118.13 297.735,126.096 301.668,118.063 "/>
    <polygon style="fill: none; fill-opacity:0; stroke-width: 1.8; stroke: #000000" points="293.668,118.13 297.735,126.096 301.668,118.063 "/>
  </g>
</svg>
