<?xml version="1.0" encoding="UTF-8" standalone="no"?>
<!DOCTYPE svg PUBLIC "-//W3C//DTD SVG 1.0//EN" "http://www.w3.org/TR/2001/PR-SVG-20010719/DTD/svg10.dtd">
<svg width="10cm" height="9cm" viewBox="97 70 181 161" xmlns="http://www.w3.org/2000/svg" xmlns:xlink="http://www.w3.org/1999/xlink">
  <g>
    <line style="fill: none; fill-opacity:0; stroke-width: 1; stroke: #000000" x1="220.15" y1="93.0116" x2="199.15" y2="93.0116"/>
    <rect style="fill: #ffffff" x="157.15" y="85.7366" width="42" height="14.55"/>
    <rect style="fill: none; fill-opacity:0; stroke-width: 1; stroke: #000000" x="157.15" y="85.7366" width="42" height="14.55"/>
    <line style="fill: none; fill-opacity:0; stroke-width: 1; stroke: #000000" x1="157.15" y1="93.0116" x2="136.15" y2="93.0116"/>
  </g>
  <text font-size="12.8" style="fill: #000000;text-anchor:start;font-family:sans-serif;font-style:normal;font-weight:normal" x="174.063" y="81.9">
    <tspan x="174.063" y="81.9">R</tspan>
  </text>
  <g>
    <g>
      <ellipse style="fill: #ffffff" cx="136.4" cy="157.933" rx="12" ry="12"/>
      <ellipse style="fill: none; fill-opacity:0; stroke-width: 1; stroke: #000000" cx="136.4" cy="157.933" rx="12" ry="12"/>
    </g>
    <line style="fill: none; fill-opacity:0; stroke-width: 1; stroke: #000000" x1="132.4" y1="156.266" x2="140.4" y2="156.266"/>
    <line style="fill: none; fill-opacity:0; stroke-width: 1; stroke: #000000" x1="132.4" y1="160.266" x2="140.4" y2="160.266"/>
  </g>
  <line style="fill: none; fill-opacity:0; stroke-width: 1; stroke: #000000" x1="136.4" y1="169.933" x2="136.375" y2="229.716"/>
  <line style="fill: none; fill-opacity:0; stroke-width: 1; stroke: #000000" x1="136.4" y1="145.933" x2="136.15" y2="92.658"/>
  <line style="fill: none; fill-opacity:0; stroke-width: 1; stroke: #000000" x1="220.15" y1="93.0116" x2="244.816" y2="92.9838"/>
  <line style="fill: none; fill-opacity:0; stroke-width: 1; stroke: #000000" x1="135.852" y1="229.786" x2="245.125" y2="229.902"/>
  <text font-size="9.6" style="fill: #000000;text-anchor:start;font-family:sans-serif;font-style:normal;font-weight:normal" x="183.375" y="83.5502">
    <tspan x="183.375" y="83.5502">i</tspan>
  </text>
  <g>
    <line style="fill: none; fill-opacity:0; stroke-width: 1.4; stroke: #000000" x1="117.083" y1="134.965" x2="117.049" y2="175.437"/>
    <polyline style="fill: none; fill-opacity:0; stroke-width: 1.4; stroke: #000000" points="112.056,166.998 117.048,177.003 122.056,167.007 "/>
  </g>
  <text font-size="14.4949" style="fill: #000000;text-anchor:start;font-family:sans-serif;font-style:normal;font-weight:normal" x="97.9" y="155.072">
    <tspan x="97.9" y="155.072">U</tspan>
  </text>
  <text font-size="9.6" style="fill: #000000;text-anchor:middle;font-family:sans-serif;font-style:normal;font-weight:normal" x="125.475" y="149.65">
    <tspan x="125.475" y="149.65">+</tspan>
  </text>
  <text font-size="9.6" style="fill: #000000;text-anchor:middle;font-family:sans-serif;font-style:normal;font-weight:normal" x="125.475" y="173.65">
    <tspan x="125.475" y="173.65">-</tspan>
  </text>
  <text font-size="9.6" style="fill: #000000;text-anchor:start;font-family:sans-serif;font-style:normal;font-weight:normal" x="108.914" y="159.825">
    <tspan x="108.914" y="159.825">i</tspan>
  </text>
  <g>
    <line style="fill: none; fill-opacity:0; stroke-width: 1; stroke: #000000" x1="245.142" y1="124.955" x2="245.142" y2="143.955"/>
    <rect style="fill: #ffffff" x="237.142" y="143.955" width="16" height="38"/>
    <rect style="fill: none; fill-opacity:0; stroke-width: 1; stroke: #000000" x="237.142" y="143.955" width="16" height="38"/>
    <line style="fill: none; fill-opacity:0; stroke-width: 1; stroke: #000000" x1="245.142" y1="181.955" x2="245.142" y2="200.955"/>
  </g>
  <text font-size="12.8" style="fill: #000000;text-anchor:start;font-family:sans-serif;font-style:normal;font-weight:normal" x="256.795" y="164.143">
    <tspan x="256.795" y="164.143">R</tspan>
  </text>
  <text font-size="9.6" style="fill: #000000;text-anchor:start;font-family:sans-serif;font-style:normal;font-weight:normal" x="265.987" y="168.568">
    <tspan x="265.987" y="168.568">23</tspan>
  </text>
  <line style="fill: none; fill-opacity:0; stroke-width: 1; stroke: #000000" x1="245.021" y1="92.3571" x2="245.142" y2="124.955"/>
  <line style="fill: none; fill-opacity:0; stroke-width: 1; stroke: #000000" x1="245.021" y1="229.889" x2="245.073" y2="200.955"/>
</svg>
